<?xml version="1.0" encoding="utf-8"?>
<!-- Generator: Adobe Illustrator 23.0.3, SVG Export Plug-In . SVG Version: 6.00 Build 0)  -->
<svg version="1.1" id="Layer_1" xmlns="http://www.w3.org/2000/svg" xmlns:xlink="http://www.w3.org/1999/xlink" x="0px" y="0px"
	 viewBox="0 0 188 56.13" style="enable-background:new 0 0 188 56.13;" xml:space="preserve">
<style type="text/css">
	.st0{fill-rule:evenodd;clip-rule:evenodd;fill:#e54b4b;}
	.st1{fill-rule:evenodd;clip-rule:evenodd;fill:#FFFFFF;}
	.st2{fill:#2f2f2f;}
	.st3{fill:#2f2f2f;}
</style>
<g>
	<g>
		<path class="st0" d="M84.68,18.21c-0.58-4.56-4.48-8.09-9.2-8.09H51.22v8.09h19.26c1.06,0,1.92,0.86,1.92,1.92v1.46h-16.9
			c-3.21,0-5.82,2.61-5.82,5.83c0,2.2,0.01,4.7,0.01,6.92c0,3.21,2.6,5.82,5.82,5.82h19.96c3.87,0,7.2-2.38,8.58-5.76
			c0.28-0.68,0.49-1.41,0.6-2.17c0.07-0.44,0.1-0.9,0.1-1.36V19.41C84.75,19,84.73,18.6,84.68,18.21z M72.41,30.97
			c0,0.69-0.56,1.26-1.26,1.26h-9.12c-0.4,0-0.77-0.13-1.07-0.35c-0.46-0.33-0.76-0.87-0.76-1.48c0-0.57,0.25-1.07,0.65-1.4
			c0.32-0.27,0.73-0.43,1.18-0.43h10.37V30.97z"/>
		<path class="st0" d="M187.92,18.21c-0.58-4.56-4.48-8.09-9.2-8.09h-24.25v8.09h19.26c1.06,0,1.92,0.86,1.92,1.92v1.46h-16.9
			c-3.21,0-5.82,2.61-5.82,5.83c0,2.2,0.01,4.7,0.01,6.92c0,3.21,2.6,5.82,5.82,5.82h19.96c3.87,0,7.2-2.38,8.58-5.76
			c0.28-0.68,0.49-1.41,0.6-2.17c0.07-0.44,0.1-0.9,0.1-1.36V19.41C188,19,187.97,18.6,187.92,18.21z M175.65,30.97
			c0,0.69-0.56,1.26-1.26,1.26h-9.12c-0.4,0-0.77-0.13-1.07-0.35c-0.46-0.33-0.76-0.87-0.76-1.48c0-0.57,0.25-1.07,0.65-1.4
			c0.32-0.27,0.73-0.43,1.18-0.43h10.37V30.97z"/>
		<path class="st3" d="M150.6,7.96c0,0-3.38,0-6.49,0.01c-1.19,0-2.15,0.98-2.12,2.16c0,0.02,0,0.03,0,0.03h8.61v8.05h-8.46v21.93h-13.01V18.2
			h-3.9v-8.07h3.89c0-2.75,1.11-5.25,2.92-7.05c1.8-1.8,4.3-2.92,7.05-2.92h11.5V7.96z"/>
		<path class="st3" d="M113.69,26.86c-0.3-0.41-0.57-0.87-0.8-1.36c-0.23-0.49-0.34-0.95-0.34-1.37c0-0.3,0.07-0.67,0.22-1.08
			c0.16-0.42,0.34-0.78,0.57-1.08l9.03-11.84h-12.07l-6.76,9.61c-0.49,0.72-0.92,1.43-1.27,2.09c-0.36,0.67-0.55,1.54-0.55,2.64
			c0,0.49,0.09,1.16,0.26,1.98c0.17,0.82,0.67,1.77,1.5,2.86l8.2,10.82h12.53L113.69,26.86z M87.96,0.27v39.87h12.88V0.27H87.96z"/>
		<g>
			<g>
				<rect y="10.13" class="st0" width="36.82" height="1.5"/>
				<rect y="11.63" class="st1" width="36.82" height="1.5"/>
				<rect y="13.13" class="st0" width="36.82" height="1.5"/>
				<rect y="14.63" class="st1" width="36.82" height="1.5"/>
				<rect y="16.13" class="st0" width="36.82" height="1.5"/>
				<rect y="17.63" class="st1" width="36.82" height="1.5"/>
				<rect y="19.13" class="st0" width="36.82" height="1.5"/>
				<rect y="20.64" class="st1" width="36.82" height="1.5"/>
				<rect y="22.14" class="st0" width="36.82" height="1.5"/>
				<rect y="23.64" class="st1" width="36.82" height="1.5"/>
				<rect y="25.14" class="st0" width="36.82" height="1.5"/>
				<rect y="26.64" class="st1" width="36.82" height="1.5"/>
				<rect y="28.14" class="st0" width="36.82" height="1.5"/>
				<rect y="29.64" class="st1" width="36.82" height="1.5"/>
				<rect y="31.14" class="st0" width="36.82" height="1.5"/>
				<rect y="32.65" class="st1" width="36.82" height="1.5"/>
				<rect y="34.15" class="st0" width="36.82" height="1.5"/>
				<rect y="35.65" class="st1" width="36.82" height="1.5"/>
				<rect y="37.15" class="st0" width="36.82" height="1.5"/>
				<rect y="38.65" class="st1" width="36.82" height="1.5"/>
			</g>
			<polygon class="st0" points="36.82,40.15 0,40.15 0,10.13 			"/>
			<path class="st1" d="M11.72,25.43l0.69,0.11c4.06-4.4,5.34-8.21,7.02-12.8c2.47,15.42,8.31,22.91,12.23,24.78
				c-4.06,0.18-6.88-1.98-8.89-5.22c-3.23-3.09-7.24-5.47-9.68-6.38c-3.52,4.52-6.75,7.03-7.58,7.33C4.88,33.46,4,32.66,4.47,32.2
				c1.07-1.04,6.29-4.54,7.53-6.28c0.08-0.1,0.19-0.17,0.28-0.26L11.72,25.43z M13.22,25.73c1.94,0.51,4.98,1.71,7.94,3.43
				c-1.09-3.12-2.71-7.56-3.16-10.84C16.98,20.54,15.25,22.89,13.22,25.73L13.22,25.73z"/>
		</g>
	</g>
</g>
</svg>
