<?xml version="1.0" encoding="UTF-8"?><svg id="uuid-8ce5574e-e892-419d-b081-ad50aca6d1fb" xmlns="http://www.w3.org/2000/svg" xmlns:xlink="http://www.w3.org/1999/xlink" viewBox="0 0 113.68 43.29">
<title>Artel Electronics logo - Brandlogos.net</title><defs><linearGradient id="uuid-050b53df-27ef-4761-bf10-95c9e2795668" x1="-.4" y1="42.72" x2="115.58" y2="8.42" gradientTransform="translate(0 45.29) scale(1 -1)" gradientUnits="userSpaceOnUse"><stop offset=".02" stop-color="#006c41"/><stop offset=".51" stop-color="#057d45"/><stop offset="1" stop-color="#14a167"/></linearGradient></defs><path d="M27.09,36.38v-10.08c0-5.53-4.55-10.08-10.09-10.08s-10.08,4.55-10.08,10.08,4.55,10.08,10.08,10.08h10.09ZM72.76,33.99c-1.22-2.38-1.85-5.01-1.85-7.69,0-9.35,7.65-16.99,17-16.99,10.46,0,18.49,9.46,16.77,19.78l-.11.68h-26.12c1.45,3.93,5.24,6.62,9.47,6.62h18.85V0h6.92v43.29h-25.85c-3.06,0-6.02-.85-8.61-2.41-.22-.14-.44-.29-.66-.44-2.77,1.84-6.06,2.85-9.39,2.85h-.12c-9.34,0-16.97-7.66-16.97-16.99v-10.05c-5.18.42-9.27,4.81-9.27,10.05v16.99h-6.92v-16.99c0-9.05,7.19-16.55,16.19-16.98V0h6.92v9.3h9.16v6.91h-9.16v10.08c0,5.53,4.55,10.08,10.09,10.08,1.55,0,3.11-.36,4.51-1.04-.29-.44-.57-.89-.82-1.35h0ZM97.38,22.84c-1.45-3.93-5.24-6.63-9.47-6.63s-8.02,2.7-9.47,6.63h18.94ZM34,43.29h-17.03C7.62,43.29,0,35.63,0,26.3S7.65,9.3,17,9.3s17,7.65,17,16.99v16.99Z" style="fill:url(#uuid-050b53df-27ef-4761-bf10-95c9e2795668); fill-rule:evenodd;"/></svg>