<?xml version="1.0" encoding="utf-8"?>
<!-- Generator: Adobe Illustrator 23.0.1, SVG Export Plug-In . SVG Version: 6.00 Build 0)  -->
<svg version="1.1" id="Layer_1" xmlns="http://www.w3.org/2000/svg" xmlns:xlink="http://www.w3.org/1999/xlink" x="0px" y="0px"
	 viewBox="0 0 1000 1000" style="enable-background:new 0 0 1000 1000;" xml:space="preserve">
<style type="text/css">
	.st0{fill:#EC1C24;}
	.st1{fill:#231F20;}
</style>
<g>
	<g>
		<path class="st0" d="M70.2,378v244h246.7V378H70.2L70.2,378L70.2,378z M147.4,418.1c0,0,0.7-13.7,14.1-13.7
			c13.4,0,14,13.7,14,13.7l0,0v95.2l0,0c0,0,0.2,8.6,9.7,8.6c9.5,0,9-8.6,9-8.6l0,0v-95.2l0,0c0,0,1.3-13.7,14.4-13.7
			c13.1,0,14.1,13.7,14.1,13.7l0,0v95.2l0,0c0,0-0.5,35-37.5,36.9c-37.1-1.1-37.9-36.9-37.9-36.9l0,0L147.4,418.1L147.4,418.1
			L147.4,418.1z M128.5,587c0,0-28.5,0-28.5-27.9c0-27.9,0-141,0-141s0-13.7,14.2-13.7c14.2,0,14.1,13.7,14.1,13.7l0,0v132.1l0,0
			c0,0-1,8.9,9.8,8.9s126.8,0,126.8,0l0,0l-30.6-74.7l0,0c0,0-4.9-13,0-21.8c4.9-8.9,25.7-44.5,25.7-44.5s5.7-13.7,16.5-13.7
			c10.7,0,16.9,11.6,12.5,19.6c-4.4,8.1-24.5,42.5-24.5,42.5s-5.1,7.1,0,16.8C272.9,503.4,307,587,307,587l0,0H128.5L128.5,587
			L128.5,587z"/>
	</g>
	<g>
		<path class="st1" d="M351.8,511.3v-112h30.5v85.8h37.9v26.2H351.8z"/>
		<path class="st1" d="M434.5,399.3H465v54.4c0,8.3,0.2,14.1,0.6,17.4c0.4,3.3,1.1,6.3,2.2,8.9c1,2.6,3,4.7,6,6.2
			c3,1.5,6.5,2.3,10.6,2.3c2,0,4-0.2,5.7-0.5c1.8-0.4,3.4-0.9,4.8-1.7c3-1.5,5-3.7,6.2-6.6c0.9-2.3,1.6-5.3,2-8.9
			c0.4-3.6,0.7-9.3,0.7-17.1V446v-46.8h30.4v59.2c0,6.1-0.2,11.4-0.5,15.9c-0.4,4.5-0.9,8.3-1.7,11.3c-1.5,5.9-4,10.9-7.5,14.9
			c-3.8,4.5-9,7.9-15.8,10.2c-6.7,2.3-14.8,3.4-24.3,3.4c-9.7,0-17.8-1.1-24.4-3.4c-6.6-2.3-11.8-5.7-15.8-10.2
			c-3.4-4-5.8-9-7.4-14.9c-1.6-5.9-2.3-15-2.3-27.2v-11.6V399.3z"/>
		<path class="st1" d="M557.4,511.3v-112h30.2v50.9l35.4-50.9h35.6l-41.4,54.6l45,57.4h-38.1L587.6,461v50.3H557.4z"/>
		<path class="st1" d="M785.9,455.4c0,8.1-1.5,15.6-4.4,22.6c-2.9,7-7.2,13.3-12.9,18.8c-5.7,5.5-12.2,9.8-19.7,12.8
			c-7.5,3-15.1,4.5-22.8,4.5c-8,0-15.7-1.5-23-4.5c-7.3-3-13.8-7.2-19.4-12.7c-5.6-5.5-9.9-11.8-12.9-19c-3-7.1-4.5-14.7-4.5-22.6
			c0-8,1.5-15.5,4.4-22.5c3-7,7.3-13.3,13.2-19c5.5-5.5,11.9-9.7,19.3-12.7c7.4-3,15.1-4.5,23-4.5c8.1,0,15.7,1.5,23.1,4.4
			c7.3,3,13.8,7.2,19.4,12.7c5.6,5.5,9.9,11.8,12.9,18.9C784.5,439.9,785.9,447.4,785.9,455.4z M726.1,488.3c8.4,0,15.4-3.1,21-9.4
			c5.6-6.2,8.3-14.1,8.3-23.5c0-4.7-0.7-9-2.1-12.8c-1.4-3.9-3.5-7.4-6.4-10.6c-5.6-6.3-12.6-9.4-20.9-9.4c-8.4,0-15.3,3.1-20.9,9.4
			c-5.6,6.2-8.4,14.1-8.4,23.5c0,9.6,2.7,17.5,8.2,23.6C710.5,485.2,717.5,488.3,726.1,488.3z"/>
		<path class="st1" d="M805.8,511.3v-112h30.8v112H805.8z"/>
		<path class="st1" d="M861.3,511.3v-112h30.5v85.8h37.9v26.2H861.3z"/>
	</g>
	<g>
		<path class="st1" d="M415.9,571.1c0,4.3-0.8,8.3-2.4,12.1c-1.6,3.7-3.9,7.1-6.9,10c-3,2.9-6.5,5.2-10.4,6.8
			c-3.9,1.6-8,2.4-12.2,2.4c-4.3,0-8.4-0.8-12.3-2.4c-3.9-1.6-7.3-3.9-10.3-6.8c-3-2.9-5.3-6.3-6.9-10.1c-1.6-3.8-2.4-7.8-2.4-12.1
			c0-4.2,0.8-8.3,2.4-12.1c1.6-3.8,3.9-7.2,6.9-10.1c3-3,6.5-5.2,10.3-6.8c3.9-1.6,8-2.4,12.3-2.4c4.2,0,8.3,0.8,12.1,2.3
			c3.9,1.5,7.3,3.8,10.3,6.8c3,3,5.4,6.4,7,10.2C415,562.9,415.9,566.9,415.9,571.1z M405.7,571.1c0-3.1-0.5-6-1.6-8.7
			c-1.1-2.7-2.6-5.1-4.7-7.2c-2-2.1-4.4-3.7-7-4.9c-2.7-1.1-5.5-1.7-8.4-1.7c-3,0-5.8,0.6-8.4,1.7c-2.6,1.1-5,2.7-7.1,4.9
			c-2,2-3.6,4.5-4.7,7.2c-0.5,1.4-0.9,2.8-1.2,4.2c-0.3,1.4-0.4,2.9-0.4,4.5c0,3,0.5,5.9,1.6,8.6c0.6,1.4,1.2,2.7,2,3.8
			c0.8,1.2,1.7,2.3,2.8,3.4c2,2.1,4.3,3.7,7,4.8c2.7,1.1,5.5,1.7,8.4,1.7c2.9,0,5.7-0.6,8.3-1.7c2.6-1.1,4.9-2.7,7-4.8
			c2-2.1,3.6-4.5,4.7-7.2C405.2,577,405.7,574.1,405.7,571.1z"/>
		<path class="st1" d="M427.1,600.8v-59.7h9.7v59.7H427.1z"/>
		<path class="st1" d="M450.8,600.8v-59.7h9.7v51h21.7v8.7H450.8z"/>
		<path class="st1" d="M563.2,555.6c-2.7-2.3-5.6-4.1-8.7-5.3c-1.5-0.6-3.1-1-4.7-1.3c-1.6-0.3-3.2-0.5-5-0.5
			c-6.5,0-11.8,2.1-15.9,6.3c-4.1,4.2-6.1,9.6-6.1,16.3c0,6.5,2,11.8,6,16c4,4.2,9,6.3,15,6.3c1.8,0,3.5-0.1,5.1-0.4
			c1.6-0.3,3.3-0.8,5-1.4c3.2-1.2,6.2-3.1,9.2-5.7v11c-2.6,1.9-5.5,3.3-8.5,4.2c-1.5,0.4-3.1,0.8-4.8,1c-1.7,0.2-3.4,0.4-5.2,0.4
			c-4.6,0-8.8-0.7-12.6-2.2c-3.8-1.5-7.2-3.7-10.2-6.6c-2.9-2.9-5.2-6.3-6.8-10.2c-1.6-3.9-2.4-8-2.4-12.4c0-4.3,0.8-8.4,2.4-12.3
			c1.6-3.9,3.8-7.3,6.8-10.2c3-2.9,6.4-5.1,10.2-6.6c3.9-1.5,8-2.3,12.4-2.3c1.8,0,3.5,0.1,5.1,0.4c1.6,0.2,3.3,0.6,4.9,1.2
			c3.2,1,6.3,2.5,9.3,4.6L563.2,555.6z"/>
		<path class="st1" d="M636.5,571.1c0,4.3-0.8,8.3-2.4,12.1c-1.6,3.7-3.9,7.1-6.9,10c-3,2.9-6.5,5.2-10.4,6.8
			c-3.9,1.6-8,2.4-12.2,2.4c-4.3,0-8.4-0.8-12.3-2.4c-3.9-1.6-7.3-3.9-10.3-6.8c-3-2.9-5.3-6.3-6.9-10.1c-1.6-3.8-2.4-7.8-2.4-12.1
			c0-4.2,0.8-8.3,2.4-12.1c1.6-3.8,3.9-7.2,6.9-10.1c3-3,6.5-5.2,10.3-6.8c3.9-1.6,8-2.4,12.3-2.4c4.2,0,8.3,0.8,12.1,2.3
			c3.8,1.5,7.3,3.8,10.3,6.8c3.1,3,5.4,6.4,7,10.2C635.7,562.9,636.5,566.9,636.5,571.1z M626.3,571.1c0-3.1-0.6-6-1.6-8.7
			c-1.1-2.7-2.6-5.1-4.7-7.2c-2-2.1-4.4-3.7-7-4.9c-2.6-1.1-5.5-1.7-8.4-1.7c-3,0-5.8,0.6-8.4,1.7c-2.6,1.1-5,2.7-7.1,4.9
			c-2,2-3.6,4.5-4.7,7.2c-0.5,1.4-0.9,2.8-1.2,4.2c-0.3,1.4-0.4,2.9-0.4,4.5c0,3,0.5,5.9,1.6,8.6c0.6,1.4,1.2,2.7,2,3.8
			c0.8,1.2,1.7,2.3,2.8,3.4c2,2.1,4.4,3.7,7,4.8c2.7,1.1,5.5,1.7,8.4,1.7c2.9,0,5.7-0.6,8.3-1.7c2.6-1.1,4.9-2.7,7-4.8
			c2-2.1,3.6-4.5,4.8-7.2C625.8,577,626.3,574.1,626.3,571.1z"/>
		<path class="st1" d="M696.3,571.3l-0.5-3.8l-0.6-4.3c-0.3,1.5-0.6,2.9-1,4.2c-0.4,1.4-1,2.7-1.7,4l-15.6,31.8l-15.6-32.5
			c-0.7-1.4-1.2-2.7-1.7-3.9l-1.2-3.7c0,1,0,1.7-0.1,2.1c0,0.4-0.1,1-0.3,1.9c-0.2,1.5-0.4,2.9-0.8,4.3l-6.4,29.4l-8.9,0l14.1-62.2
			l17.6,37.7l1.2,3l2.1,5.1c0.6-1.7,1.4-3.8,2.7-6.5l0.7-1.6l17.2-37.7l14.4,62.2l-9,0L696.3,571.3z"/>
		<path class="st1" d="M728.8,574v26.8h-9.1v-59.7h14.7c4.3,0,7.5,0.2,9.5,0.7c2.1,0.5,3.9,1.2,5.4,2.4c1.9,1.4,3.3,3.3,4.4,5.6
			c1,2.4,1.6,4.9,1.6,7.8c0,2.8-0.5,5.4-1.6,7.8c-1.1,2.4-2.5,4.3-4.4,5.7c-1.5,1.1-3.3,1.8-5.4,2.3c-2.1,0.5-5.3,0.7-9.6,0.7h-1.9
			H728.8z M729.4,566.1h2.5c5.4,0,9-0.6,10.8-1.7c1.8-1.2,2.7-3.2,2.7-6.2c0-3.2-0.9-5.5-2.8-6.7c-1.9-1.3-5.4-1.9-10.6-1.9h-2.5
			V566.1z"/>
		<path class="st1" d="M803.6,600.8l-6.8-15.4h-23.6l-6.9,15.4l-10.2,0l28.9-62.1l28.9,62.1L803.6,600.8z M776.7,577.4h16.6
			l-6.1-13.6l-1.1-3L785,557c-0.2,0.8-0.4,1.4-0.5,2c-0.1,0.5-0.3,1.1-0.5,1.7c-0.3,1.1-0.7,2.1-1.1,3.1L776.7,577.4z"/>
		<path class="st1" d="M819.4,600.8v-62.1l37.9,36.5l3.2,3.3c1,1.1,2.2,2.4,3.3,4v-41.4h9v62.1L834.1,566c-0.6-0.5-1.1-1-1.5-1.5
			c-0.2-0.2-0.7-0.7-1.5-1.7c-1-1.1-1.9-2.3-2.7-3.5v41.5H819.4z"/>
		<path class="st1" d="M899.4,600.8v-27.3l-20.1-32.4l10.2,0l12.5,20.3l1.1,2l1.4,2.7c0.1-0.2,0.2-0.5,0.4-1
			c0.2-0.5,0.5-1.1,0.8-1.6c0.4-0.8,0.8-1.6,1.4-2.3l12.8-20h9.7L909,573.4v27.4H899.4z"/>
	</g>
</g>
</svg>
